<svg id="Layer_1" data-name="Layer 1" xmlns="http://www.w3.org/2000/svg" viewBox="0 0 100 100"><defs><style>.cls-1{fill:#666d68;}</style></defs><title>YG-crest</title><path class="cls-1" d="M67.92,86.2s0,0,0,.08A.45.45,0,0,0,67.92,86.2Z"/><path class="cls-1" d="M91.51,84.16v-.09a1.81,1.81,0,0,1,.51.23c.13-.12.35,0,.55.11l0-.13c.53.09.77.15,1.3.21l-.1-.08,1.4.07,0-.09a2.44,2.44,0,0,1,.66,0l-.09-.09a3,3,0,0,1,.67,0l-.09-.09c.52,0,.58-.09.17-.27l.12,0a.63.63,0,0,1-.4-.21h.16a.81.81,0,0,1-.45-.27l.19,0a.87.87,0,0,1-.44-.27h.16a1.78,1.78,0,0,1-.49-.36l.25,0c-.37-.08-.29-.13-.46-.29l.19,0a7.67,7.67,0,0,1-.78-.34l.33-.08a2.94,2.94,0,0,1-.84-.12l.25-.08a3.51,3.51,0,0,1-.91-.13l.3-.12a5.43,5.43,0,0,1-1.14-.1l.32-.1a5,5,0,0,1-1.09-.08l.37-.15a3.69,3.69,0,0,1-1.15,0l.16-.11c-.47,0-1.2.13-1.66.13l-.16-.25a8.88,8.88,0,0,1-1.13.28L87.27,81c.17,0,.55-.14.33-.14a11.75,11.75,0,0,0,2.16-.38,1.63,1.63,0,0,1,.5,0l.64-.12a7.61,7.61,0,0,1,1,.31l-.14-.14c.4,0,.78.08,1.18.17l-.16-.14a2.4,2.4,0,0,1,1,.1l-.35-.21a2.84,2.84,0,0,1,.92,0l-.29-.15a3,3,0,0,1,1,0l-.28-.17A1.9,1.9,0,0,1,95.5,80l-.22-.11a1.79,1.79,0,0,1,.69-.07l-.3-.12a3,3,0,0,1,.61-.33l-.17,0c.11-.17,0-.22.34-.3h-.2a1,1,0,0,1,.34-.38l-.13,0a.48.48,0,0,1,.32-.28h-.16a.54.54,0,0,1,.33-.28h-.13a.34.34,0,0,1,.3-.21l-.11,0c.32-.19.25-.31-.2-.34l.06-.11a1.57,1.57,0,0,1-.57,0l.06-.1c-.61-.08-1.07-.14-1.73-.17L94.7,77a2,2,0,0,1-1.07,0c-.17.17-.34.26-.45.08-.16.16-.32.26-.41.11-.18.21-.35.29-.45.1a1.29,1.29,0,0,1-.36.34l0-.15a1.74,1.74,0,0,1-.3.46l-.07-.15a2.66,2.66,0,0,1-.23.52l0-.16a2.62,2.62,0,0,1-.19.49l-.1-.19a1.87,1.87,0,0,1-.12.52l-.11-.15-.17.55-.16-.16a2,2,0,0,1-.2.87l-.37.08h0c-3.28.82-5.92.79-10.5.95a15.78,15.78,0,0,0,1.59-1.24c.54-.24,1.31-.44,1.74,0v-.21a5.33,5.33,0,0,1,1,.36l-.1-.16a9.09,9.09,0,0,1,1.27.21l-.11-.17a2.53,2.53,0,0,1,1.09.12l-.31-.25a3.36,3.36,0,0,1,1,0l-.26-.17a4,4,0,0,1,1.09,0l-.23-.2a2.67,2.67,0,0,1,.89-.08l-.21-.13a2.3,2.3,0,0,1,.83-.07l-.29-.14a5.82,5.82,0,0,1,.85-.38l-.17-.05c.2-.19.13-.24.52-.34h-.23a2.07,2.07,0,0,1,.57-.44l-.15,0a1,1,0,0,1,.5-.31h-.17a1.06,1.06,0,0,1,.5-.32h-.14a.63.63,0,0,1,.44-.24l-.11,0c.44-.17.42-.3-.06-.4l.11-.11a1.67,1.67,0,0,1-.63,0l.11-.12a1.12,1.12,0,0,1-.63,0l.06-.13c-.57,0-.81,0-1.34-.06l.12-.1c-.31.16-.55.18-.59,0a2.81,2.81,0,0,1-.69.18l.07-.17a1.62,1.62,0,0,1-.56.23v-.14a2.34,2.34,0,0,1-.56.25l0-.12a1.48,1.48,0,0,1-.57.26v-.15a2.76,2.76,0,0,1-.58.38l0-.16a3.45,3.45,0,0,1-.56.52v-.17a4.82,4.82,0,0,1-.5.6l0-.19a5.09,5.09,0,0,1-.46.58l0-.23a2.59,2.59,0,0,1-.38.61l-.06-.19-.44.65-.12-.19a3.38,3.38,0,0,1-.63,1,1.75,1.75,0,0,0-.62.11c1.33-1.37,2.83-3.62,4.67-5.52l1.77-.53c.53.4.59,1.07,1.19,1.36l0-.14a14.5,14.5,0,0,1,1.56.44l-.19-.24c.48,0,.94,0,1.41.08l-.2-.16c.37-.06.71-.15,1.08-.19l-.14-.08c.3-.12.6-.25.91-.36l-.15,0a8.9,8.9,0,0,1,1.11-.68l-.23,0a7.84,7.84,0,0,1,1.13-.78l-.15,0a2.58,2.58,0,0,1,.79-.28l-.14,0a4.27,4.27,0,0,0,.79-.48l-.26,0,1-1.1-.23,0c.38-.6.63-.88,1-1.44l-.13,0,.2-.38-.54.28,0-.1a23.23,23.23,0,0,0-2,1.63l.06-.33c-1.5,1.31-2.57.73-4.16.52l.09-.1c-.34.07-.73.12-1.06.21l.15-.17-.9.47.16-.21c-.34.25-.69.48-1,.72v-.19c-.26.32-.69,1.06-1,1.37l-1.31.4c1.38-1.42,3-2.92,3.72-3.62.46-.24,1-.06,1.18-.38.81-.24.4-.09,2.28-.67l-.26-.09,1-.54-.27,0a10,10,0,0,1,1-.65l-.22,0a4.53,4.53,0,0,1,.78-.54l-.3,0c.23-.26.48-.51.73-.76l-.18,0a4.82,4.82,0,0,1,.58-.69l-.24.09.8-1-.23,0a6,6,0,0,1,.78-1.09l-.29,0,.58-1.22-.29.2a6,6,0,0,1,.52-1.19l-.24.14a4.35,4.35,0,0,1,.45-1l-.22.09c.14-.51.23-.88.23-.88s-.25.27-.61.63l0-.19a5.27,5.27,0,0,1-.7.93l0-.25a5,5,0,0,1-.85,1l0-.25a4.63,4.63,0,0,1-1,.86v-.22c-.31.28-.67.44-.89.26a12.52,12.52,0,0,1-1,.76L93.19,63l-.81,1-.14-.19L92,64.87l-.14-.27a4.54,4.54,0,0,1-.43,1.06l-.08-.23c-.09.51-.29.92-.72.71.06.59,0,1-.5.93a4.23,4.23,0,0,1-.22,2.43c-.36.32-.84.86-1.61,1.58-.06-.38,0-.86.19-1l.22-.28a7.56,7.56,0,0,1,.43-.91c-.16-.19,0-.51.2-.82l-.22.11a3.1,3.1,0,0,1,.26-.85l-.17.12a3.54,3.54,0,0,1,.25-.9l-.18.08a2.53,2.53,0,0,1,.17-.77l-.14.09a2.52,2.52,0,0,1,.16-.71l-.16.15a4.44,4.44,0,0,1,.06-.89l-.17.1c-.07-.27,0-.25,0-.63l-.13.21a3.37,3.37,0,0,1,0-.71l-.17.09c-.07-.19,0-.33,0-.53l-.16.09c-.06-.19,0-.35,0-.56l-.17.07c-.06-.16,0-.38.07-.55l-.17.12c0-.44-.06-.5-.26-.17l0-.16a1.08,1.08,0,0,1-.18.49l-.14-.14c0,.19,0,.33-.07.49l-.2-.26c0,.28-.15.7-.31.74,0,.17-.14-.14-.2,0l0,.29c0,.18.19.35.14.53l-.09-.08a3.6,3.6,0,0,1,0,.66L87,64.41A1.27,1.27,0,0,1,87,65l-.09-.08a1.68,1.68,0,0,1,0,.59l-.07-.1a2.15,2.15,0,0,1,0,.62l-.09-.1a5.46,5.46,0,0,1,.1.69l-.1-.1a5.89,5.89,0,0,1,.2.75l-.12-.09a6.65,6.65,0,0,1,.26.75L87,67.84a5.07,5.07,0,0,1,.35.65l-.27,0c.1.2.36.28.41.5l-.25.09.42.58-.15,0c.2.35.36,0,.48.42a4.58,4.58,0,0,0-.06,1.33,45.17,45.17,0,0,0-4,4.06l-.4-.95a7.92,7.92,0,0,1,.75-1.16l-.19.07c.12-.42.19-.8.35-1.21l-2.17,1.68.3.22-.21.09a3.35,3.35,0,0,1,.89.75,2.19,2.19,0,0,0,.37,1A18.35,18.35,0,0,1,76.81,82l.36-.86c.28-.27.8-.67,1.1-.92l-.44.15c.25-.3.78-.69,1-1l-.11-.21c.15-.34.29-.66.47-1l-.17.1a8.05,8.05,0,0,1,.27-1l-.18.17c0-.27,0-.53,0-.79l-.11.08-.3-.76-.12.11a4.2,4.2,0,0,1-.06-.85l-.15.2a3.6,3.6,0,0,1,.12-.81l-.15.09a2.45,2.45,0,0,1,.35-.66l-.14,0,.66-1.05-.18.06c0-.33,0-.65-.06-1l-.1.1c-.14-.3-.26-.61-.38-.92l-.08.15-.55-.75,0,.11c-.24-.24-.46-.51-.68-.77l0,.09a3.5,3.5,0,0,1-.61-.82l-.06.2L76,69.09s.06.25.14.62l-.09,0a2.12,2.12,0,0,1,.27.85l-.14,0a2.14,2.14,0,0,1,.3.89l-.13-.12a2.41,2.41,0,0,1,.14,1.06l-.08-.08a1.16,1.16,0,0,1,0,.69l-.07-.12a1.91,1.91,0,0,1-.19.67L76,73.35a2.47,2.47,0,0,1-.41.68l-.07-.13a9,9,0,0,1-.6,1l-.08-.13-.34,1-.22-.2a1.35,1.35,0,0,1,0,.87c0,.23.05.45.06.68L74,77a5.89,5.89,0,0,1,.33.86l-.27-.12.58,1.1-.44-.19a7.23,7.23,0,0,1,.89,1l-.32,0c.3.26.61.53.88.81l-.36-.11a5.51,5.51,0,0,1,.79.44l-.23.07.74.27-.21,1.12c-1.62.88-5.11,2.49-8.31,4a1.93,1.93,0,0,0,.05-.51,2.79,2.79,0,0,1,.29-1.21l.56-.1a10,10,0,0,1,1.1-1.06l-.28.06a13.77,13.77,0,0,1,1-1.36l-.3.08c.19-.39,0-.16,1.07-1.48.11-.41-.42-.27-.17-.61l-.39.25a2.27,2.27,0,0,1,.26-.64l-5.15,1.78v0H66.1l-.12,0a3.83,3.83,0,0,1,.5.66l-.24-.08c.16.19,0,.24.08.47l.13.16a3,3,0,0,1,.64.6H66.8l.65.68c.75.28.59,1,.17,2.46a84.28,84.28,0,0,0-9.07,4.91c0-.17,0-.3,0-.48A4.56,4.56,0,0,1,60,90.08l-.29-.15,1-.61-.28-.08a4.23,4.23,0,0,1,.92-.53l-.35,0a8.6,8.6,0,0,1,.86-.63l-.28,0a6.05,6.05,0,0,1,.91-.69h-.26a4.32,4.32,0,0,1,.78-.76l-.25,0a3.69,3.69,0,0,1,.57-.79l-.23,0a2.88,2.88,0,0,1,.4-.78l-.18,0a2.52,2.52,0,0,1,.36-.76l-.21,0a2,2,0,0,1,.33-.77l-.25.11a3.2,3.2,0,0,1,.26-1c-.31-.09-.26-.43-.09-.8l-.14.16c0-.7-.07-1.07-.13-1.81-.33,0-.33-.37-.22-.78l-.17.16a2.31,2.31,0,0,1-.09-.87l-.17.16c-.16-.66-.36-.68-.61-.09L62,78.81a.9.9,0,0,1-.36.6l0-.2a2.06,2.06,0,0,1-.47.69v-.24a2,2,0,0,1-.47.68l-.05-.19a3,3,0,0,1-.66.77l0-.32a1.75,1.75,0,0,1-.51.71l-.08-.23a8.22,8.22,0,0,1-.56,1.16l-.22-.39a2.88,2.88,0,0,1-.1,1.13l-.2-.29a3.06,3.06,0,0,1-.1,1.21l-.31-.31a4.66,4.66,0,0,1,0,1.49l-.27-.37a4.1,4.1,0,0,1,0,1.44l-.37-.42a3.14,3.14,0,0,1,.2,1.48l-.26-.15a12.46,12.46,0,0,1,.34,1.72l-.25-.13a7.18,7.18,0,0,1,.57,1.41h-.31a1.55,1.55,0,0,1,.52,1.58c-1.5,1-3.5,2.27-5.6,3.42-.53-.29-1.07-.59-1.62-.91l-.46-1.75c.12-.25.35-.69.59-1.12l-1.62-2.93L47.54,86c.32,1,2.21,5.23,2.48,5.74l-.12.36c-.51-1.26-2.62-4.55-3.25-7l-1.21-.85c0,.26-.11.52-.17.81l-.14-.14v1.43l-.34-.19a5.56,5.56,0,0,1,.43,1.18h-.1c.13.28.24.57.35.87l-.35-.12a9.52,9.52,0,0,1,.76,1L45.51,89l1.17,1.23-.61-.08a9.68,9.68,0,0,1,1.48,1l-.38.09c.47.23.95.46,1.39.73h-.48a7.15,7.15,0,0,1,1.13.27l-.25.18,1.16.19.4,1.26c-2.72-1.6-5.46-3.46-9.37-5.86,0-.57.11-1.19-.17-1.61l.54-.39c.25-.5.57-.61.91-1.06l-.28.12a14.77,14.77,0,0,1,.64-1.72l-.29.14A3,3,0,0,1,43,82l-.46.4A4,4,0,0,1,42.77,81l-.34.36a4.73,4.73,0,0,1,.26-1.5l-.38.3a3,3,0,0,1,.1-1.22l-.26.28a2.59,2.59,0,0,1,.09-1.14l-.3.38a7.46,7.46,0,0,1-.4-1.18l-.11.23a1.48,1.48,0,0,1-.42-.74l0,.33a2.86,2.86,0,0,1-.56-.81l-.08.19a1.65,1.65,0,0,1-.38-.7L39.9,76a1.69,1.69,0,0,1-.38-.71l-.06.2a.77.77,0,0,1-.28-.62l-.1.15c-.18-.62-.4-.6-.64.06l-.16-.16a2.34,2.34,0,0,1-.23.86l-.16-.16c0,.43,0,.78-.36.78-.18.72,0,1.25-.17,1.94L37,78.08c.12.39.1.72-.22.8a3.08,3.08,0,0,1,.11,1l-.25-.11c.23.35.37.68,0,.76a2.18,2.18,0,0,1,.25.77l-.18-.05A2.48,2.48,0,0,1,37,82l-.24,0a3.29,3.29,0,0,1,.47.81l-.26,0a4.05,4.05,0,0,1,.69.8h-.28a5.17,5.17,0,0,1,.84.72l-.29-.06a6.31,6.31,0,0,1,.8.67h-.37a3.74,3.74,0,0,1,.88.56l-.31.07.91.64c.55.2,1,.13.87,1.57-2.1-1.32-4.1-2.61-6.29-4A1.6,1.6,0,0,1,34.57,82l-.3,0a6.81,6.81,0,0,1,.47-1.38l-.23.14a13.31,13.31,0,0,1,.23-1.68l-.24.16c-.07-.48-.23-.5-.06-1l-.16,0a4,4,0,0,1,0-1.38l-.23.37a4.31,4.31,0,0,1-.07-1.43l-.28.32A3,3,0,0,1,33.49,75l-.18.28a2.75,2.75,0,0,1-.15-1.07h0l-.19.38a8.2,8.2,0,0,1-.6-1.08l-.06.23a1.71,1.71,0,0,1-.53-.66l-.19.29c-.26-.18-.27-.44-.45-.69l-.29.16c-.2-.16-.12-.37-.24-.6l-.24.21a1.75,1.75,0,0,1-.5-.61l0,.45a1.75,1.75,0,0,1-.62-.73l-.11-.12c-.27-.56-.41-.26-.53.38l-.17-.14c0,.27.33.6.26.86l-.31-.14c.13.39.56,1.19-.1.71,0,.71.5,1,.49,1.73l-.39-.21c.18.35.25.67,0,.77a3.26,3.26,0,0,1,.29.9l-.24-.09a2,2,0,0,1,.36.72h-.2a2.67,2.67,0,0,1,.39.7l-.18,0a2.89,2.89,0,0,1,.42.72H29a4,4,0,0,1,.59.72H29.3a4.3,4.3,0,0,1,.79.69l-.25,0a5.87,5.87,0,0,1,.9.6l-.27,0a6,6,0,0,1,.86.55l-.33,0a3.89,3.89,0,0,1,.91.46l-.26.09,1,.53-.27.16a5.05,5.05,0,0,1,1.5.76,2.35,2.35,0,0,0,.09.53c-4.76-3.36-10.84-6.92-14.38-11.87.21-.37.09-1.08.55-1.26l1.57-.15,0,0-.65-1.84-.68-2.7a9.07,9.07,0,0,0-.73.61l-.05-.12c-.12.28-.09-.21-.22.06l-.22.61-.09.86L19,67.36c0,.39.06.77.08,1.15l-.16-.12c.14.36.48.9.61,1.27l-.41-.25a1.75,1.75,0,0,1,.19,1.78,23.39,23.39,0,0,1-2.53-5.35,1.93,1.93,0,0,0,.47-.85,2.92,2.92,0,0,1,1-.37l-.16-.14.72-.23-.17-.09a2.76,2.76,0,0,1,.68-.19l-.22-.07a5.24,5.24,0,0,1,.65-.27h-.18a3.48,3.48,0,0,1,.69-.29l-.17-.06a2.21,2.21,0,0,1,.63-.35l-.16,0a1.63,1.63,0,0,1,.49-.41l-.15,0a1.34,1.34,0,0,1,.39-.43h-.13a1,1,0,0,1,.36-.42l-.13,0a.83.83,0,0,1,.34-.43l-.18,0a2.43,2.43,0,0,1,.33-.56c-.21-.08-.15-.28.08-.52l-.12.08c.09-.47.12-.66.23-1.17-.23,0-.18-.25,0-.52l-.14.07A.92.92,0,0,1,22,58l-.14.07c0-.44-.11-.49-.36-.15l0-.1a.61.61,0,0,1-.33.32l-.23-.4c-.11.16,0,.56-.18.63l0-.15a.89.89,0,0,1-.41.36v-.13a2.38,2.38,0,0,1-.55.39l.07-.21c-.2.32-.23.25-.45.38v-.16c-.15.24-.15.44-.37.62L19,59.08a2.83,2.83,0,0,1-.46.83l-.08-.21a2,2,0,0,1-.27.75l-.14-.25a3,3,0,0,1-.25.94l-.1-.27a2.76,2.76,0,0,1-.22.91l-.17-.31a1.85,1.85,0,0,1-.13,1l-.13-.14A8.89,8.89,0,0,1,17,63.44l-.14-.12a4.53,4.53,0,0,1,.12,1l-.2-.06a1,1,0,0,1-.1,1.32,20.41,20.41,0,0,1-.55-2l0,0a3.89,3.89,0,0,1,.41-1.14l-.24.07.25-.82-.19.11a3.44,3.44,0,0,1,.27-.76l-.21.17a5.06,5.06,0,0,1,.18-.77l-.13.16a3.88,3.88,0,0,1,.18-.82l-.16.13a3.65,3.65,0,0,1,.08-.81l-.13.14a2.41,2.41,0,0,1-.05-.71l-.12.13a1.28,1.28,0,0,1-.15-.61l-.08.12a1.71,1.71,0,0,1-.15-.59l-.12.12a.89.89,0,0,1-.17-.58l-.09.19a2.15,2.15,0,0,1-.3-.63c-.2.16-.34,0-.43-.37v.15c-.38-.36-.53-.48-.93-.89-.16.21-.34,0-.49-.29l0,.17a.92.92,0,0,1-.46-.41l0,.17c-.4-.26-.52-.17-.38.27l-.1,0a.68.68,0,0,1,.08.5l-.11-.09a1.07,1.07,0,0,1,.06.61l-.11-.12a1,1,0,0,1,0,.6l-.11-.08a2.36,2.36,0,0,1,0,.75L12,57.41c.16.38.07.36.05.64L11.94,58a3.06,3.06,0,0,1,.23.9l-.31-.09a1.77,1.77,0,0,1,.48.64l-.24,0a1.94,1.94,0,0,1,.51.69h-.32a3.26,3.26,0,0,1,.71.77l-.32,0a2.7,2.7,0,0,1,.7.73l-.4,0a1.94,1.94,0,0,1,.8.67l-.21.05a9.15,9.15,0,0,1,1,.73l-.2.07a4.32,4.32,0,0,1,1,.44l-.17.16c.36,0,.62.28.8.61a21.36,21.36,0,0,0,1.65,5,4.09,4.09,0,0,1-.78-1.08l-.05.15c-.19-.3-.39-.58-.56-.9l-.07.17-.85-.85,0,.16c-.3-.23-.64-.44-.95-.66a1.41,1.41,0,0,1-1.14.13l.11.17-1,.1.08.13a2.11,2.11,0,0,1-1.91-.36l.06.22-.71-1,0,.17c-.27-.33-.54-.66-.8-1l0,.15a5.12,5.12,0,0,1-.78-.61.75.75,0,0,1-.67.08l.11.08a3.29,3.29,0,0,1-.83.06l.12.09a2.28,2.28,0,0,1-.69,0c.17.26,0,.36-.5.3l.51.28-.16.14a2.37,2.37,0,0,1,.82.25l-.21.17a4.06,4.06,0,0,1,1,.33l-.29.21a4.65,4.65,0,0,1,1.22.16l-.07.09a1.25,1.25,0,0,1,1.22.69l-.17,0a3.73,3.73,0,0,1,.48.85h-.11a8.34,8.34,0,0,1,.58.75l-.12.06c.32.16.61.37.93.5l-.06.08c.32,0,.63.12,1,.17l-.08.14a11.26,11.26,0,0,1,1.3,0l-.07.1a4.89,4.89,0,0,0,2-.11l0,.12a2.42,2.42,0,0,1,.57-.44v.09a1.64,1.64,0,0,1,.94-.38l.69.35a22.19,22.19,0,0,0,3,4.55c-.42-.07-1.06.09-1.52-.22l-.16-.25-.65-.67,0,.23a2.93,2.93,0,0,1-.57-.65l0,.27a5.17,5.17,0,0,1-.65-.58l.07.21a5.26,5.26,0,0,1-.71-.62l0,.21a3.82,3.82,0,0,1-.75-.51l0,.19a3.15,3.15,0,0,1-.75-.34l0,.18a3,3,0,0,1-.72-.21l.06.13a2.19,2.19,0,0,1-.7-.18l0,.16a2,2,0,0,1-.71-.16l.13.18a3.57,3.57,0,0,1-.86-.07c-.06.24-.35.26-.68.17l.15.09-1.55.33.09.14a1.91,1.91,0,0,1-.75.13l.16.12a2.06,2.06,0,0,1-.74.18l.16.12q-.82.3,0,.48l-.12.07a.88.88,0,0,1,.57.2l-.17,0a1.94,1.94,0,0,1,.66.28l-.21,0a1.71,1.71,0,0,1,.65.28l-.16.06a2.74,2.74,0,0,1,.75.41l-.28,0a1.51,1.51,0,0,1,.68.31l-.19.08a8.06,8.06,0,0,1,1.07.29l-.31.23a2.77,2.77,0,0,1,1-.08l-.22.2a3,3,0,0,1,1.07-.08l-.24.28a4.34,4.34,0,0,1,1.29-.2l-.28.25a4,4,0,0,1,1.24-.22l-.31.35A2.94,2.94,0,0,1,17,75.57l-.1.22a12.51,12.51,0,0,1,1.46-.49l-.08.21c.37-.26.38-.54.8-.73l.23-.53c.47.13,1.25.08,2,.26,1,1,2.62,2.28,4.09,3.43a56.46,56.46,0,0,0-8.08.07.16.16,0,0,1,0-.07l0,.07a7.68,7.68,0,0,0-2.75.73c-.18,0-.53-.12-.72-.14a1.53,1.53,0,0,1-.52-.64c-.24.16-.42,0-.56-.35-.21.23-.34,0-.43-.33l-.07.18a3.44,3.44,0,0,1-.41-.44v.15a2.85,2.85,0,0,1-.45-.47c-.17.14-.39,0-.6-.26v.13a1.86,1.86,0,0,1-.6-.29c-.12.16-.37.1-.63-.09l0,.09c-.53-.08-.7-.13-1.23-.24l.06.12c-.6,0-.89-.08-1.48-.08l.12.07c-.56,0-1,.06-1.57.07l0,.09a2.62,2.62,0,0,1-.74,0l.11.09a2.77,2.77,0,0,1-.76,0l.11.09c-.58.06-.63.16-.16.31l-.13,0a.75.75,0,0,1,.46.18l-.17,0a1,1,0,0,1,.52.24h-.2a.88.88,0,0,1,.51.25l-.17,0a1.86,1.86,0,0,1,.58.33H5.16c.42,0,.33.11.54.27l-.21,0c.32.07.6.19.91.29L6,78.64a3.35,3.35,0,0,1,1,0l-.27.11a4,4,0,0,1,1,0L7.43,79a5.48,5.48,0,0,1,1.28,0l-.35.14a5.72,5.72,0,0,1,1.24,0l-.41.2a4.34,4.34,0,0,1,1.29-.11l-.16.13c.51-.09,1-.12,1.53-.17l-.15.13A9.61,9.61,0,0,1,13,79l-.05.15c.4,0,.81-.16,1.2-.23l-3.07,1.36-.51-.42,0,.19a3,3,0,0,1-.58-.4l.2.22c-.3-.1-.6-.22-.89-.34l.11.22a6,6,0,0,1-1.05-.27l.28.25-1,0,.17.14a4.9,4.9,0,0,1-.76.08l.2.11a4.81,4.81,0,0,1-.53.2,1.36,1.36,0,0,1-.66.34l.22.08-.64.58h.12a5.93,5.93,0,0,1-.61.79h.13a2.31,2.31,0,0,1-.4.53H5a1.83,1.83,0,0,1-.46.37h.11a1.08,1.08,0,0,1-.5.28l.08,0a2.29,2.29,0,0,1-.85.27l.12,0a1.44,1.44,0,0,1-.77.11l.06.09a2,2,0,0,1-.73.11l.06,0-.52.12.53.2L2,84.37a3.19,3.19,0,0,1,.81.13l-.07,0a7.4,7.4,0,0,1,.81.21l-.08.06.74.12-.08.12Q4.55,85,5,85l0,.1.76-.3V85l.6-.84v.11a2,2,0,0,1,.4-.47l0,.13a2.87,2.87,0,0,1,.58-.37l-.11.18a3.58,3.58,0,0,1,.67-.26l0,.12.68-.06,0,.11c.2-.09.4-.19.6-.27l-.07.18L9.59,83l0,.16c.19-.24.4-.46.61-.68l0,.17c.16-.28.34-.54.5-.82l0,.12c.1-.3.39-1.06.51-1.35l.77-.45c.65-.27,1.72-.72,2.91-1.25l.1,0-.1,0a5.2,5.2,0,0,1,2.18-.52l-.43.65a1.41,1.41,0,0,1-.88.1l0,.07a2.18,2.18,0,0,1-.63-.09l.09.06a4.06,4.06,0,0,0-1.54.74l.09,0a8.38,8.38,0,0,1-1,.53l.13.07a6.32,6.32,0,0,1-.64.52l.08,0c-.18.23-.3.51-.47.75a1,1,0,0,1,0,.81l.07,0a2.11,2.11,0,0,1,0,.83l.09-.11a1,1,0,0,1-.6,1l.1,0a3.59,3.59,0,0,1-.85.61l.32,0a3,3,0,0,1-.62.67l.24,0a2.1,2.1,0,0,1-.51.52l.19,0c-.14.25-.25.42-.25.42q.52-.37.51,0a1.72,1.72,0,0,1,.52-.27l0,.12a1.93,1.93,0,0,1,.65-.3l-.05.11a.61.61,0,0,1,.54-.22,4.27,4.27,0,0,1,.31-.77l.05.12c0-.36.09-.72.14-1.08l.06.14.1-1,.05.19a1.75,1.75,0,0,1,1.27-1.06v.13l.77-.32v.18a1.2,1.2,0,0,1,.91-.37c.14-.29.3-.59.42-.89l.05.14.25-1,.13.1c0-.31,0-.61,0-.91l.63-1.44a63,63,0,0,1,8.6.21c.95.71,2,1.45,3,2.2a1.6,1.6,0,0,1-1.7-.46v.27A7.68,7.68,0,0,1,26,80l.11.21a13.15,13.15,0,0,1-1.63-.35l.14.22a3.06,3.06,0,0,1-1.4-.22l.38.34a4.15,4.15,0,0,1-1.36-.09l.34.24a4.83,4.83,0,0,1-1.42-.06l.3.27a3,3,0,0,1-1.16,0l.26.18a2.74,2.74,0,0,1-1.07,0l.36.21a8.84,8.84,0,0,1-1.11.44l.22.07a1.72,1.72,0,0,1-.69.41h.31a2.62,2.62,0,0,1-.75.53l.18,0a1.86,1.86,0,0,1-.65.38l.22,0a1.9,1.9,0,0,1-.66.38l.18,0a.88.88,0,0,1-.58.29l.14.06c-.57.2-.55.37.07.52l-.15.14a2.29,2.29,0,0,1,.82.11l-.15.14a2.26,2.26,0,0,1,.82.06l-.08.16,1.72.17-.15.12c.34-.14.66-.16.76.1a3.13,3.13,0,0,1,.91-.18l-.11.21a2,2,0,0,1,.74-.27l0,.19a2.42,2.42,0,0,1,.73-.29l0,.15a3.29,3.29,0,0,1,.75-.31l0,.2a3.28,3.28,0,0,1,.76-.46l0,.21a4.54,4.54,0,0,1,.74-.64v.23a5.28,5.28,0,0,1,.67-.75l-.05.24a5.35,5.35,0,0,1,.62-.72v.3a3.64,3.64,0,0,1,.53-.77l.06.25.6-.81.14.25A4.31,4.31,0,0,1,28.17,81a2.19,2.19,0,0,0,1-.19c2.52,1.8,5.23,3.64,7.85,5.36a3.12,3.12,0,0,0-.69.28,5.5,5.5,0,0,1-1.65-.85V86l-1.11-.51.07.29a4.52,4.52,0,0,1-1-.52l.16.32a7.05,7.05,0,0,1-1.08-.41l.19.23a7.51,7.51,0,0,1-1.15-.42l.12.24a5.21,5.21,0,0,1-1.17-.26l.15.2a3.92,3.92,0,0,1-1.08-.06l.14.2a3.65,3.65,0,0,1-1,.08l.14.14a3.31,3.31,0,0,1-.94.1l.12.18a2.52,2.52,0,0,1-.94.13l.23.16a4.53,4.53,0,0,1-1.09.31c0,.32-.31.47-.75.52l.23,0L23.16,88l.18.12a2.44,2.44,0,0,1-.85.51l.25.07a3.06,3.06,0,0,1-.82.56l.24.07c-.58.5-.5.69.22.57l-.11.15a1.52,1.52,0,0,1,.79,0l-.18.14a2.42,2.42,0,0,1,.93,0l-.23.14a2.37,2.37,0,0,1,.92,0l-.17.15a3.25,3.25,0,0,1,1.12.14l-.33.17a2,2,0,0,1,1,0l-.2.2A8.8,8.8,0,0,1,27.35,91l-.27.41a3.64,3.64,0,0,1,1.18-.55l-.18.34a4,4,0,0,1,1.27-.59l-.16.45a5.77,5.77,0,0,1,1.49-.84l-.23.44a5,5,0,0,1,1.42-.84l-.22.56a3.69,3.69,0,0,1,1.38-1l0,.31a16,16,0,0,1,1.56-1.27v.29a9.16,9.16,0,0,1,1.13-1.28l.15.27a2,2,0,0,1,1.47-1.29c2.89,1.9,5.55,3.59,7.8,5l-1.54.89A8.77,8.77,0,0,0,41.69,91L41,90.57l.08.23c-.18,0-.38-.1-.6-.14l-1.66-.57.3.38c-.23,0-.47,0-.7,0l-1.28-.13.31.25a4.57,4.57,0,0,0-.66.18l-.82.12.21.13-.4.22-.8.35.22.08a4.75,4.75,0,0,0-.4.38l-1,.71.34,0a1.46,1.46,0,0,0-.16.19l-1.43.68.22.06-.91.83.21.09a.62.62,0,0,0-.27.2l-.75.55.36,0L30.2,97.15l.31,0a.61.61,0,0,0-.05.12l-.71,1.21.17.1-.48.88.18,0-.21.6.7-.45,0,.17.77-.72c.29-.21.59-.44.86-.67l.08.11.49-.4c.11-.11.33-.24.42-.33l.08.13.8-.4,0,.18a10.76,10.76,0,0,1,1.54-1.06l0,.25,1.58-.22-.16.15.9,0,.81,0-.1.17.63-.16a3.4,3.4,0,0,0,.8-.18l-.17.28,1.17-.75-.19.33c.35-.3.64-.61,1.32-1.16l0,.31.61-1,.33-.47.1.29L43.49,93v0l.25-.45,1.72-.92c1.72,1.07,4,2.4,6.49,3.79a26.81,26.81,0,0,1-5.12,2.21c-1.27,3,1.45.5,5.88-1.79,4.86,2.18,6.26,4.37,8.92,3.56a87.06,87.06,0,0,1-8.34-3.91l.37-.23a7.53,7.53,0,0,1,2.09.25c.5.33.2.06,1,.91l0-.2a10.87,10.87,0,0,1,1.39.62l-.05-.22A3,3,0,0,1,59.3,97l-.24-.35a3.87,3.87,0,0,1,1.23.34l-.22-.27a4.56,4.56,0,0,1,1.28.34l-.17-.3a3.34,3.34,0,0,1,1.09.2l-.18-.21a2.83,2.83,0,0,1,1,.18l-.26-.25c.42,0,.77-.14,1.18-.15l-.18-.1a2.21,2.21,0,0,1,.79-.21l-.28-.06a3.46,3.46,0,0,1,.89-.3l-.16-.07a2.18,2.18,0,0,1,.75-.19l-.21-.06a2.24,2.24,0,0,1,.76-.19l-.16-.07a1.09,1.09,0,0,1,.64-.12l-.11-.08q.9-.08.12-.45l.19-.09a2.46,2.46,0,0,1-.72-.25l.2-.1A1.82,1.82,0,0,1,65.8,94l.13-.11-1.53-.49.18-.06c-.37,0-.67,0-.66-.24a3.94,3.94,0,0,1-.91,0l.17-.15a2.24,2.24,0,0,1-.77.07l.08-.15a3,3,0,0,1-.78.1l.1-.12a3.67,3.67,0,0,1-.8.11l.09-.16a4,4,0,0,1-.87.23l.1-.17a6.24,6.24,0,0,1-.92.4l.07-.2a5.87,5.87,0,0,1-.88.5l.12-.19a8.37,8.37,0,0,1-.82.48l.09-.26a4.21,4.21,0,0,1-.76.55l0-.22-.85.56-.52.44c-.49.26-1.09,0-1.68,0,2.22-1.37,4.37-3,7.68-4.89,1,.14,1.88.15,2.62.25L65,91.45a8.06,8.06,0,0,1,1.08,1.11l.06-.38c.46.24.94.44,1.41.68,0-.64.71-.4,1.32-.09l-.24-.27a7.92,7.92,0,0,1,1.59.46L70,92.62l1.5.59-.16-.28,1.73,0-.29-.28a12.15,12.15,0,0,1,1.55-.31l-.16-.19a6.07,6.07,0,0,1,1-.42l-.27-.18a5.43,5.43,0,0,1,1.67-.23l-.3-.23a7.32,7.32,0,0,1,1.81.07L77.82,91a8.34,8.34,0,0,1,1.58.1l-.23-.18c.68,0,1.17-.05,1.17-.05l-1.25-.51.25-.13a7.18,7.18,0,0,1-1.5-.38l.32-.1a11.25,11.25,0,0,1-1.81-.49l.43-.1-1.89-.45.23-.24a9.3,9.3,0,0,1-1.83-.16l.2-.17L71.7,88l.27-.15a7.2,7.2,0,0,1-1.23,0l.16-.13c-.46,0-.93.06-1.39.06l.24-.25a5.06,5.06,0,0,1-1.16.29l.17-.19a13.46,13.46,0,0,1-1.39.35l.19-.22-1.26.48,0-.32c-.37.29-.76.53-1.15.79-.44,1.1-.86,1.54-2.75,1C65.54,88.05,67.78,87,72,85a1.69,1.69,0,0,1,1.86.67c.37-.22.89,0,1.33.45l0-.23a13.14,13.14,0,0,1,1.63.58l-.06-.24a3.43,3.43,0,0,1,1.42.42l-.27-.38a5,5,0,0,1,1.43.29l-.26-.28a5.15,5.15,0,0,1,1.5.27l-.2-.31a3.64,3.64,0,0,1,1.27.13l-.21-.22a3.65,3.65,0,0,1,1.18.12l-.31-.25c.48-.09.9-.21,1.38-.26l-.21-.09a2.49,2.49,0,0,1,.92-.3l-.33,0a4.23,4.23,0,0,1,1-.4l-.18-.07a2.87,2.87,0,0,1,.86-.27l-.23,0a2.65,2.65,0,0,1,.88-.27l-.19-.06a1.34,1.34,0,0,1,.74-.19L86.85,84c.69-.06.74-.23.14-.5l.22-.12a2.23,2.23,0,0,1-.84-.22L86.6,83a2.55,2.55,0,0,1-.87-.18l.16-.14L84.1,82.3l.21-.09a5,5,0,0,1-.86,0l.08-.17a4.68,4.68,0,0,1-1.06,0l.2-.18a3.07,3.07,0,0,1-.9.14l.09-.17A3.4,3.4,0,0,1,81,82l.12-.13a5,5,0,0,1-.94.18l.1-.18a5.38,5.38,0,0,1-1,.32l.11-.19a7.9,7.9,0,0,1-1.06.5l.08-.22a7.72,7.72,0,0,1-1,.62l.15-.22a8.51,8.51,0,0,1-1,.59l.11-.29a5.26,5.26,0,0,1-.89.66l0-.24-1,.68,0-.26a5.54,5.54,0,0,1-1.26,1,2.15,2.15,0,0,0-.86-.09,59.62,59.62,0,0,0,6-3.21c1.37,0,5.86-.43,7.68-.41a4.47,4.47,0,0,1,.52,0c.56.19.93.34,1.27.42s.18.49.25.78c.23-.13.16-.34.41.27-.11-.27.3.08.35.34l.08-.16a2.81,2.81,0,0,1,.33.44l0-.13a2.79,2.79,0,0,1,.36.47l.06-.12a1.48,1.48,0,0,1,.45.42l0-.12A2.72,2.72,0,0,1,91,84C91.07,83.88,91.29,84,91.51,84.16ZM96,78.1c-.39.28-4.77,2-5.15,1.74Zm-10.83.23c.82,0,3-1.55,4.85-1.64-.86.13-5.21,2.28-7.29,2.35C82.76,79,84.52,78.48,85.2,78.33ZM91,73.11c1,.23,5.82-2.82,5.33-2.39-2.44,1.9-4.7,2.94-7.59,2.51C89.14,73.11,90.5,73.21,91,73.11Zm1-6.23a31.6,31.6,0,0,0,5.32-5.16c-.64,2-5.3,5.07-6.65,7.28A6.81,6.81,0,0,1,92,66.88Zm-3.72-1.83c0-.81,0-2.63,0-2.63.12.78.19,5.41.1,6.73l-.14.72S88.24,65.86,88.23,65.05ZM68.9,81.59c0,.34,0,2.13-.59,2.6Zm-8.77,4.88c.27-1,.68-4.84,2-5.92C61,82,60.4,88,58.82,89.85,58.84,89.39,59.6,88.07,60.13,86.47Zm-19.8-.68c.28-1.63-1.78-7.12-1.23-9.79C38.74,77.85,40.93,83.46,40.33,85.79Zm-8-5.94a21.14,21.14,0,0,0-2.85-7.21c.79.54,3.39,5.63,3.11,7.29l.69,2.15A13.17,13.17,0,0,1,32.36,79.85ZM18.82,62.18a13.28,13.28,0,0,0,2.74-3.67c-.52,2.24-2.75,3.38-4.15,5.68A4.58,4.58,0,0,1,18.82,62.18Zm-3.43.57c-.33-1.07-1.78-5.14-2.39-6.8a37.07,37.07,0,0,1,2.39,6.12ZM7.1,65.13c.39-.25,2.5.79,2.74,1.36Zm4.36,2.72a4,4,0,0,1-.59-.57c.12.36,4.87,1.27,5.11,1.29C16,68.57,12.58,68.46,11.46,67.85Zm4.31,5.64c-1,0-4.51.3-5.73-.66,1.66.79,6.81.07,9,1.21C18.66,74.11,17.32,73.67,15.77,73.49ZM10.22,78c-1.75-.8-3.41-.66-5.57-1.28,2-.18,5.79,1.32,8.38,1.75A9.12,9.12,0,0,1,10.22,78Zm-.31,2.74c-2.16-.17-3.95,3.62-7,3.37,1.93.48,4.55-3.49,7.41-3.52A1,1,0,0,1,9.91,80.76Zm2.2,4.15c-.14.2-1,1.23-1,1.23l1.17-2A1.65,1.65,0,0,1,12.11,84.91Zm2.06-3.27a11.14,11.14,0,0,0-1.37,1.61,4.19,4.19,0,0,1,.24-.78A11.83,11.83,0,0,1,16.18,80Zm9,.34c-1,.36-4.34,2.24-6,1.81,1.89.08,7.1-2.93,9.49-2.69C26.25,81.34,24.74,81.49,23.12,82Zm7.63,5.62c-2.53-.09-5.08.82-7.63,1.62,2.65-2,8.58-1.48,11.69-2.59A8.35,8.35,0,0,1,30.75,87.6ZM39,92.79c-2.47.13-8.13,5.54-8.59,5.65,3.24-3.76,7.55-6.85,12.21-6.14C42,92.59,39.8,92.55,39,92.79Zm23.71,2.07c1-.09,3.09-.23,3.09-.23a72.1,72.1,0,0,1-7.9.7l-.85-.12S61.78,95,62.73,94.86Zm7.75-4.43c1.49-.13,6.64-.75,8.2.12-2.4-.66-10.19.62-13-.37C66.25,90.06,68.26,90.4,70.48,90.43Zm11.39-6.15c1.36-.14,4.44-.42,4.44-.42C85.18,84.12,76.52,85,75,85l-1.27,0S80.51,84.43,81.87,84.28ZM76.5,79.46a.93.93,0,0,1,0,.47c-1.33-2.63,2-5.35.82-8.71C79,73.14,75.77,76.18,76.5,79.46ZM89,81.66c1.3.8,4.62.82,7.08,2.25C95.14,83.15,90.65,82.83,89,81.66Z"/><path class="cls-1" d="M52.63,94.84c-3.07-2-4-7.63-8.57-10.2C35.6,79.3,24.77,79.5,20.63,71.4c-4.25-17.22-1.48-32.9-3.38-54.48-1.54-5.47,6.89-2.8,13.69-5.17C40.55,9.32,45.86,4.61,52.63,0,78.47,20.64,89.94,7.34,87.94,18.94,86.67,109.63,80.69,57.72,52.63,94.84Zm0-92.06c-23.15,19.09-35.19,7.38-33.1,17.51,1,86.32,7.46,36.54,33.1,71.78,2.83-2.7,3.6-7.46,8.86-10.24,7.65-4.44,18-4.62,21.4-12.34C86.32,53,84.11,40.28,85.77,19.26c1.66-5.63-4.69-3-11.32-5C64.67,12,59.28,7.68,52.63,2.78Z"/><path class="cls-1" d="M52.63,89.62c-3-2-3.6-7.25-8.58-9.71C37,75.82,26.9,75.43,23.72,68.08,20.38,52.53,22.52,39.49,20.93,20c-1.5-5.17,5.75-2.76,12-4.83C41.69,13,46.38,8.78,52.63,4.51c23,18.54,33.56,6.28,31.62,17.55C83.1,102.73,77.78,56.35,52.63,89.62ZM22.75,48.23C21.1,87.05,39.54,66,52.09,87.89l.11-26,.38.22h.16l.39-.23c0,.76-.11,25.4-.1,26,16-22.33,31.35-2.91,29.48-39.35H73c-.36-.19-.57-.42,0-.93h3.31l.27.14.31-.12,5.6,0c3.29-52.19-.47-16.53-29.41-42,0,4.73,0,17,0,21.63l.11.2L53.13,43.1c-1.8,5.42-.54-26.71-.93-26.11l-.07-.37.07-11.1C15.84,32.26,21.35-3.38,22.75,48.06h0Z"/><path class="cls-1" d="M41.23,68.93c.37-1.2,5.06-10-2.5-7.75-.17-.55,4-.17,4.08-2.35-1.61-.31-2.53-.37-4.91,2.19.56-1.59.63-3.84-.33-.12,0-1-4.94-1.77-1.88.06C31,60.69,34.66,74.25,41.23,68.93Zm-6.8-5.35-.08-.48L34,63c-.12-.17-.41-.1.18-.64v.34l.35.12.66-.37Zm1.94-2a2.9,2.9,0,0,0-.82.23c0,.31.11.13-.14.81-.08.12.22-1.4-1-.8a5.55,5.55,0,0,1,1.54-.56l1.09.3A4.77,4.77,0,0,1,36.37,61.53Zm1.22.1c-.09,0-.36-.24-1-.61l.37.11-.35-.34c-.09-.07.24.16.69.4V61A3.12,3.12,0,0,0,35,59.91c.16-.46,2,.22,2.69,1.28Zm1.68-1.38a14.59,14.59,0,0,1,2.81-1c-.49.51-2.46,1-3.8,1.68C38.28,61,38.87,60.5,39.27,60.25Zm-.42,1.32c-.51.17.09.52-1.05.76-.29.11,1-.42.21-.44a2.42,2.42,0,0,1,1.46-.61A2.82,2.82,0,0,1,38.85,61.57Zm1.38,1.23c-.09,0,2.15-.7,1.25-1.59C43.37,61.5,41.76,63.55,40.23,62.8Z"/><path class="cls-1" d="M32.86,58.71c.12.29.62,1.28.62,1.28l.77,1.23c.2-.09.78-.29.91-.36-.11-.17-1.08-.47-.62-1.28-.55-.75-1.34-1.89-2-3l-.3-.21c.11-2.19-5.53-5.92-.31.52l0,.22A18.24,18.24,0,0,1,32.86,58.71Zm1,.12c.11.16.47.73.47.73l-.07.19c-.3-.42-.86-1.54-1.43-2.36Zm-1.78-2c0-.07.18-.27.18-.27l.18.09.42.52c0,.17-.49-.89-.87-.05A1.1,1.1,0,0,1,32.06,56.83Zm-1.92-2.89a3.2,3.2,0,0,0-.26-.74,5.31,5.31,0,0,1,.52,1l.27.41A8.51,8.51,0,0,1,30.14,53.94Zm0-.65c0,.13,1,1,1.27,2C31.2,55,30.68,54.16,30.15,53.29Zm1.59,3.26a10.46,10.46,0,0,0-.92-1.34c.29.34.52.7,1.14,1.38l0,.15S31.74,56.6,31.74,56.55Z"/><path class="cls-1" d="M35.15,69.05a1.82,1.82,0,0,0-.2-.25c-2.15,2-3.75,5.24.39.51A1.57,1.57,0,0,1,35.15,69.05Z"/><path class="cls-1" d="M43.31,73.29l-2.4-3.76a2.41,2.41,0,0,1-1,.6C41.4,73.36,46.89,78.68,43.31,73.29Zm.5,1.15A26,26,0,0,1,41,70c.56.88,1.93,2.93,2.73,4.14C43.69,74.1,43.89,74.51,43.81,74.44Z"/><path class="cls-1" d="M30.58,48.38l-8.32.11,0-.93c3,.19,9.05,0,11.93,0l0,.21a4.85,4.85,0,0,0,.72.74Z"/><path class="cls-1" d="M35.73,69.68c-1.35,1.88-2.14,5.61,1.1.28C36.6,69.88,36.6,70.16,35.73,69.68Zm-.11.9c-.38.62-1.34,1.63.06-.43a1.36,1.36,0,0,1,.24,0C35.82,70.35,35.72,70.44,35.62,70.58Z"/><path class="cls-1" d="M48.74,54.92a8,8,0,0,0-3,2.85l-.17,0s-.54.6-1.14,1.18c.46-.77,1.21-1.91,1.92-2.9l0,0c2.06-.91,1.43-5.64-.63-.3l-.09,0a15,15,0,0,1-2,2.67l-.49.68a1.44,1.44,0,0,1-.61.86l-.54.75c.57.2.19,0,.87.71,1-1,2-2.2,3.17-3.4l.15-.27C46.4,57.54,48.24,56.27,48.74,54.92Zm-2.15-.84a1.88,1.88,0,0,1,.3-.45l.13-.2c.14,0-.24.51.24.3-.09.12.34.14.33.32l.1,0c-.17,0-.13.1-.53-.18,0-.09-.21.3-.23-.13-.18.11-.17.43-.84,1.38C46.09,55.09,46.54,54.23,46.59,54.08Zm-.91,1.78a4.13,4.13,0,0,0,.43.2c0,.15-.36-.32-.58,0Zm-3.15,4.57a3.71,3.71,0,0,0,.68-1.18c.23-.27,1.12-1.25,1.69-2A13.4,13.4,0,0,1,42.53,60.43Zm3.22-2.5-1.06.93c.14-.13.36-.38.94-1l.17-.06ZM48,55.51c-.22.48-.31.5-1.38,1.33a6.83,6.83,0,0,1,1.63-1.59A2.74,2.74,0,0,1,48,55.51Z"/><path class="cls-1" d="M36.83,33.71c.84.09-.59-5.65-.88-4.43,1.38,3.39-7.05-1.8-4.49-4.31,4.48-2.85,2.22-1.11,0-1.42,5.17-11.11-2.5-1.1-1.45,3.88.06-.13-1.15-.17-1.38-1.53-.33.19,1.63-1.25.41-.84l-.63.26c-.51-1.84-.23-2.19.27-4.19-1.53.94-1.47,2.8-1,4.64-1.84,1.57,2.12,2.74,4,3.8C34.14,30.13,35.4,34.44,36.83,33.71Zm-4.53-10c1-.41,2.42-.5-.67.33A7,7,0,0,1,32.3,23.67Zm-1.14-2c-.07.11,2.61-4.09,1.81-2.36C32.74,19.66,30.31,23.83,31.16,21.65Zm-3,0c.94-1.09.17.56-.34.49A1.89,1.89,0,0,1,28.13,21.69Zm-.63,3c0-.08,0-.35-.06-1A13.06,13.06,0,0,0,28,25.49l-.31.18A8,8,0,0,1,27.5,24.65Zm.4,1.4c.58-.52.81-.67,0,0C27.75,27.77,25.88,26.67,27.9,26.05Zm.92,1c.1,0-1.08,0-.6-.8a1.94,1.94,0,0,0,.87.86A1.41,1.41,0,0,0,28.82,27.08Zm1.67.47c.06.09.19.28.05.28a3.61,3.61,0,0,1-.43-3.4C29.88,25.07,30.24,26.37,30.49,27.55ZM36,29.07c-.43-.17.46-.13.36.47C36.2,29.69,36.45,29.41,36,29.07Zm-.14,1.71c.23-.49.39-2,.17.54C36.08,31.45,35.83,31.12,35.88,30.78Zm-.07,3s0-.17,0-.17c.35.24.53-.15,1.18-.62l-.1.09C36.61,33.09,36.74,33.67,35.81,33.77Z"/><path class="cls-1" d="M37.26,33.82c0,.56-1.18.18-.91,1.26.53,2.27,3.4,5.41,4-.09C40.89,34.59,38,30,37.26,33.82ZM38,37.76c-.1.08-.2-.25-.2-.25a7.26,7.26,0,0,1-.86-1.46c-.12-.32.35.86.28.23-.13-.06.92,2.11.91.93C38.14,37.37,38.42,37.41,38,37.76Zm.5-1.88c-.26-.17-.06-2.57-.08-1.41A9.37,9.37,0,0,1,38.48,35.88Zm.23-.17c0-.2-.13-1-.1-1.62A7.84,7.84,0,0,1,38.71,35.71ZM39.44,37a9.1,9.1,0,0,0,.74-1c.06-.07-.61,1.52-1.24,1.63C39.16,37.62,38.73,37.51,39.44,37Zm-1.67-4.42c.32-.06.74-.45,1.45.06-.4-.32-1-.14-1.56,0C37.66,32.68,37.65,32.63,37.77,32.61Z"/><path class="cls-1" d="M40.2,33.6c1.14.35,2.5-3.22,5.42-4.65.74.15,7-5.73,3.06-2.57.23-.55,1.08-5.41-.62-5.12.73.79,1,4.85-1.05,5.82l-.34.15c1.95-1.7-6-15.18-2.08-6.61.13.57,1.6,3.8.64,3.19-.92-.83-3.32-2-1.62-.64,4.5,2.58.06,7.11-2.79,7.06-.44-.14.27-2.39-.54-.78C41,30.8,38.77,32.38,40.2,33.6Zm8.27-11.91c-.71-.67.59-.17.27,1.19C48.64,23,48.79,22.34,48.47,21.69Zm.26,4.8c.38-.47,1.06-.32-.2.22A.46.46,0,0,1,48.73,26.49Zm-4.93-8.1s.05.12-.06.1c-.46-.85-.06-.55.74.69A7.43,7.43,0,0,0,43.8,18.39Zm1,5.28c.09.22-2.16-1.42-1-.81C43.73,23,44.36,23.07,44.76,23.67Zm1.61,3.83c.11-.29,1.2,0,1.7-1.27.24.47-1.34,1.57-2.32,1.6Zm-.73-3.91c.06-.25-.9-3.47-.69-2.91C46,22.59,46,24,45.64,23.59Zm-4.48,7.29A12,12,0,0,1,43,29.47C43,29.19,40.83,31.77,41.16,30.88Zm-.75-1.6c.05-.1.21-.35.21-.35s0,1.5-.31.76A2.3,2.3,0,0,1,40.41,29.28Zm-.6,3.19c0,.4-.07.22.39.84l.27.25s-.27-.17-.27-.25S39.55,33.06,39.81,32.47Z"/><path class="cls-1" d="M74.13,69.12a2.38,2.38,0,0,0-.29-.37c-.46-.33.55-1.88-1-1.89l-.15.06c-.06,0-.11,0-.49.3-.26.5.62,1.07-.07,2,0,.2-.49,1,.44,1.34C73.19,70.6,74.73,70.44,74.13,69.12Zm-1.41-1.93c.18-.2.75,0,.71.65S72.24,68.18,72.72,67.19Zm1.06,2.73c-.29.13-.21.22-1,.23-.27-.13-.61-.4-.14-1.17.17-.14.14-.36.66,0a.69.69,0,0,0,.22,0,.61.61,0,0,1,.26.22C73.71,69.31,74.1,69.38,73.78,69.92Z"/><path class="cls-1" d="M61.93,68.42s-.06,0-.19,0,0,0-.18-.2a.19.19,0,0,1,0-.11s.11-.08,0-.23l-.06-.08h0c-.13.1-.18.16-.43.58l-.06.08h0a1,1,0,0,0-.18.2,1,1,0,0,1-.35.27,1.34,1.34,0,0,1-.82.13c-.11,0-.57-.44.05-.7.68-.51-.82.06-.43-.78a1.5,1.5,0,0,1,.17-.26c.13-.1.09-.87.73-.69,0,0,0,0,.25.25a.72.72,0,0,0,0,.21c0,.46.69-.06,0-.65-.67-.31-1.39.28-1.53,1.36,0,.13,0,0,.11.27a1,1,0,0,0,.12.13.17.17,0,0,1,.06.12c-.29.28-.26,1.14.8,1a.27.27,0,0,0,.2,0,.42.42,0,0,1,.18-.14,2,2,0,0,0,.28-.14.46.46,0,0,1,.07-.07.66.66,0,0,0,.2-.21l.09-.1v0h0l0,0a.19.19,0,0,0,.08,0h.07l.08,0c.07,0,.07-.08.28,0,0,.07.14.12-.09.32h-.08c-.08,0-.12,0-.29-.11s-.12-.08-.16.34a.09.09,0,0,0,.07.06,3.06,3.06,0,0,0,.42,0C61.71,69.22,62.35,68.75,61.93,68.42Z"/><path class="cls-1" d="M63.76,68.69s-.06,0-.16.1a0,0,0,0,0,0,0C63.34,69.28,64.52,69.06,63.76,68.69Z"/><path class="cls-1" d="M71.41,69c-.86-.33.81-1.47-.79-1.65.12,0-1.14.28-.84.72,1.24-.57,1.26.42,0,1.29,2-1,1,2.63-.45,1-1.18.73.93,1.61,2.14-.71A.63.63,0,0,0,71.41,69Z"/><path class="cls-1" d="M64.12,67.52c.06,0,.09,0,.09-.07s-.11-.07-.28-.07a1.14,1.14,0,0,1-.38,0l-.14,0h-.13s-.14,0-.13-.18,0,0,0-.07a.29.29,0,0,1,.06-.13c.07-.48-.4,0-.53.37-.34.06-1.25.23-.11.26a.17.17,0,0,1,0,.07.92.92,0,0,0-.06.25v0a1.25,1.25,0,0,1-.08.28,1,1,0,0,1-.16.45.88.88,0,0,0,0,.19.23.23,0,0,0,0,.07s-.06.18.15.24l0,0a.63.63,0,0,0,.54-.15c.1,0,.09,0,.25-.2l.11-.14,0,0s.08-.18,0-.09l-.1.12-.05.06A1,1,0,0,1,63,69l0,0a.44.44,0,0,1-.12,0C62.25,68.45,63.05,67.21,64.12,67.52Z"/><path class="cls-1" d="M69.12,67.86c0-.2.14-.39-.34-.71a.52.52,0,0,1-.11-.1s0,0-.57-.12a3.78,3.78,0,0,0-.74.4c-.3,0-1.4,1-.3,1.63h0c0,.07.59-.26,1,.07.06.63-.57,1.6-1.26,2.72,0,.05,0,.07,0,.08a.71.71,0,0,0,.55,0c.15-.11.18,0,.31-.36A36.4,36.4,0,0,1,69.12,67.86Zm-.81.72c-.6.78-2.28-.62,0-1.27C68.23,67.45,68.87,67.48,68.31,68.58Z"/><path class="cls-1" d="M65.72,67.29c0,.06,0-.14-.4,1.15C64.15,71.58,64.81,76.81,65.72,67.29Z"/><path class="cls-1" d="M80.42,61.92c-4.6-4.66-11.85-5.54-18.28-1.76-1.15.37-4.41-2.85-6.14-.51-.76,8.51.27,3.85,7,3.69-2.12.29.21,3,1.07.41C68.37,65.56,75.83,66.06,80.42,61.92ZM56.88,63.64c.13.46.4.29,1.54,0-.05-.16-1.59,1.44-2,.43-.26-.58.65-4.84,0-4.47,0-.29.54-.87,1.39-.26l.57,0c-1.3.21-2.46.74,1.11,1.38-.09.51-2.13-.69-2.54.11-.36,1,0,2.44,2,1.52-.09.72-1.66.15-2,.74A1.3,1.3,0,0,1,56.88,63.64Zm4.36-1.24a16,16,0,0,0-2.31.74,4,4,0,0,1,1.93-1v-.24c-.79,0-2.33.49-3.56-.45.26-.16,3.25.77,3.56-.38-.65.07-1.57-1.23.18-.25l.54-.46a4.2,4.2,0,0,0,0,2.4A1.5,1.5,0,0,1,61.24,62.4Zm15.41-1.85c.6-1.41,1.87,1.48.35.36,1,.9.28-1.68-.17-.17h0s0,0,0,0S76.61,60.62,76.65,60.55Zm.56.19c0-.33.72.21-.11.18C76.76,60.88,77.36,60,77.21,60.74Zm-1.62-1.2c-.26.53-.86,2.44.67,3.46l-.41,0C75.57,62.55,73.77,61.19,75.59,59.54Zm-1.68.19c.19-.25,1.56-.74,0-.64,0,.13.32-.43,1.1.11a2.83,2.83,0,0,0-1.12,2c-.43-.55-1.28-.47-3.44.16C71.05,60.37,74.14,61.85,73.91,59.73ZM67,59.48c-.58.23-.6.79-1.93,1.34,1.66-1.83-.14-.44-2.42.29,2-1.63,8.17-3.93,11-2.4C72,58.78,69,58.18,67,59.48Zm3,3.76c-.92-1,1.42-2.09,3.12-1.38-1.6,1-2.22-.93-2.89,1.06.75,0,.36,1.07,1.92.75A1.36,1.36,0,0,1,70,63.24Zm6,.59c.07.24-5.63,1.76-4.48.61.37.16,4.15-.27,3.18-2.08.32.17.52,1.15,1.88,1.12A2.67,2.67,0,0,1,76,63.83ZM77.34,63c-.2.22-1.89-1-.34-1.48-.14,0-.9,1.3.76,1.37A.84.84,0,0,1,77.34,63Zm2.7-.54c-1.77.77.12.29-1.71-.06A5.74,5.74,0,0,1,80,62.41Zm.17-.07c.43-.16-3.24-.63-2.17-.06C76,62.26,79.61,61,80.21,62.34Z"/><path class="cls-1" d="M67.84,57.72c3.85.46,3.32-2.33-1.26-1.09C66.26,57.1,66.18,58,67.84,57.72ZM68,57c-.27-.09-1-.27-1-.27.65.15,3.6,1,1-.28.48.23,2.8,1.49,1,0l1.23,1c-1.33-.28-1.23.2-3.25-.24C66.63,57.16,70.11,57.54,68,57Z"/><path class="cls-1" d="M80.77,23.66c.24-.05.15-.6.7-1.33l-.08-.18c-.7.47-.32.69-1.85.1-.19-.13.23-2.32-1-.65-.53-.16-2.48.61-1.51-1.21-.4-.21-1-.16-1.82.54.67-1-1.22-1.95-.81.29h0a3.08,3.08,0,0,1-1.44.64c.19-1.13-.15-2.24-.68,0-1.83,1.28-2.17-2.51-4.88-1.47-.35-.85-1.38-1.8-.57.38-.61.3-.42.41-1.8.45.21-.74-1.58-1.66-.76.07-.62.21-.56,1.14-2,.22.14-.92.26-2.31-.64-.24-.43.2-.62.38-1.49-.15.23-.89-.9-2.39-.66,0-.5,1.84-1.73,1.5-3.31,1.21,3,1.2-.31,2.1-.25,3.67,1.17.08,3.09-3.76,5.36-3.4-.64.06-.1,2.06-1.34,2,.92.7.74-.58,1.57-1.95.43,0,0,.25,1.88.9.89,1.55,3.25,2.34,4.56-.33a65.25,65.25,0,0,1,.42,7c-2.48,4.65,1.87,6.82-3.57,10.55-.22.58,2.4-.43.56,1.67,1-.51,2.37-2.63,4.14-3-.78,1.41,2.69,1.79,3.59.91-4.32-2,.64-2.31-3.4-6.52,2.25-6-2.79-9.65,3.67-10.23.87,2.13,3.28.83,5.14-.44a1.43,1.43,0,0,0,.7.31c0,.44.48,1,0,1.9.26.05.34-.93.2-1.87.67.05,1.41,1.4,2.07,2.09l0-.46S80.43,23.83,80.77,23.66ZM56.91,22.35c-.13-.13-.39.07-.69-.05-.08-.06.41,0,.19-.08,0,.06.25-.13.72.21C57.1,22.44,57,22.36,56.91,22.35ZM56.73,25c-.16.22-.7.33-.67.91a.28.28,0,0,0-.12-.32C55.72,25.57,56.19,25.3,56.73,25ZM60,20c-.22.18-.16-.21-.48.23C59.51,20.05,59.82,19.7,60,20Zm2.14.72a1.43,1.43,0,0,1,.29-.65C62.33,20.25,62.42,20,62.09,20.67Zm4.36,19.17a2.66,2.66,0,0,1-1.09.68c.12.18.44-.83,1.29-1A1.26,1.26,0,0,1,66.45,39.84Zm4.93-.18c0,.14.35-.38,1,.49a1.92,1.92,0,0,0-1.26,0S71.55,39.92,71.38,39.66Zm-3-19.19c.27-.29,1.37.34,1.92,1.35.36.91-.77-1.36-1.49-1C69,20.64,69.14,20.52,68.41,20.47Zm-1.72-.07c-.64-1.6,1.69,1.74.34.36Zm-2.37.43c.21.6-.66-.37.06-.55C64.59,20.53,64,20.34,64.32,20.83Zm-1.43,1.65c-.44,0,1.5-.45.62-.46.34,0,.33-.54,1.21-.42C64.38,22,64.56,22,62.89,22.48Zm4.87.88c-.11.52-2.49,2.62-4,.22,1-.38,2.17-1.18,4-.65A.64.64,0,0,1,67.76,23.36Zm-.57-1.12c-.77-.23-2.22-1.39.1-.23.58-.12.73-.59-.78-.77,1.34-.13,2.22,1.07,4.49,1a2,2,0,0,1-1.17.24A2.26,2.26,0,0,0,67.19,22.24Zm1,3.65c0-.27,0-1.59,0-2.36-.3,1.34,2.06,3.77,1,5.71C68.86,27.58,70,28.47,68.24,25.89Zm.55,12.21c-.66.08-.71.45-1.85,1.11a8.24,8.24,0,0,0,1.33-2.13c.09,0-.15.16.43.71C68.7,37.79,68.9,38.1,68.79,38.1Zm.55-.32c.16-1-2.22-2.53-1.76-4.53C67.14,33.36,71.09,39.4,69.34,37.78Zm1.09.55a1.72,1.72,0,0,1,0,.39c0,.13-1,1,.36.94-.38.65-2,.67-.39-1.24A.37.37,0,0,0,70.43,38.33Zm-.13-3.14c.06.07-.25,0-.27.84-.15-.12-.3,0-.26-.62C69.35,35,68.63,36,68.1,34A2.56,2.56,0,0,0,70.3,35.19Zm-.32-4c-.06.17-.11.34-.21.57.16-.83-1.52-2.27-1.15-4C68.52,28.63,69.28,29.74,70,31.23Zm3.21-8.81c-1.88-.7-2.49,1.89-4-.12.82,1.25,1.84-.2,3.44-.15.16,0-.49-.1-.07-.82-.14.14.16,1.47.79.61C73.52,21.84,73,22.23,73.19,22.42Zm4.51-.8a2.86,2.86,0,0,1,.89.08,1.86,1.86,0,0,1,.06-.33c-.09,0,.37.5-.08.57-.23-.2,0-.45-1.61-.13A3.41,3.41,0,0,1,77.7,21.62Zm-1.86-.9a4.06,4.06,0,0,1,.35-.38l.25,0c-.1-.07-.3.43-1,.69A2.27,2.27,0,0,0,75.84,20.72ZM74.5,20c.09-.05.22,0,.32,0s.43.13.43.13-.33-.11-.43-.13,0,0-.37.17C74.45,20.13,74.42,20,74.5,20Zm-.14,1.55a2.83,2.83,0,0,1,.55-.16c.15,0-1-.24-.57-.76C73.94,21,76.17,21.39,74.36,21.5Zm-.22.28c1.31-.31,1.28,0,2.27-1.13-.16.84-.86,1.55-2.56,1.19A1.26,1.26,0,0,0,74.14,21.78ZM78,23.14c-.83.17-2.78,3.19-4.5.45,1-.91,3-.38,4.83-.51Zm1.67.32c-.74-.47-1.93-.86-3.24-1.55.31.33,1,0,2,.17-1.42-.28.18.58,1.44,1.32A.29.29,0,0,1,79.71,23.46Zm.8-.32a1.53,1.53,0,0,1-.06.25l-.1.09c.09-.18.23-.6-.62-.56-.25-.06,1.64.23.72-.15a.21.21,0,0,1-.26-.12.62.62,0,0,0,.26.12C80.65,22.67,81.13,22.73,80.51,23.14Z"/><path class="cls-1" d="M75.73,39.59c-1.46-.68-2.43-.68-3.91-2.08-1.68,2.08,2.34,1.74,3.08,4.26a2.3,2.3,0,0,0-.55-1.93C74.8,40,78.93,40.19,75.73,39.59Zm-3.16-.75c-.07-.21-.29-.33-.67-1.1.23,0,.59.55,1.4,1.4C73.3,39.14,72.76,39.16,72.57,38.84Zm2.39.7a2,2,0,0,1-.73-.36c.29.21.71-.26,1.52.68C75.75,39.86,75.09,39.57,75,39.54Z"/><path class="cls-1" d="M65.62,39c.29-.8,1.22,0,2.11-1.5-.33,0-8.16,1.71-6.13,2.2.16.23,4.18-1.73,3-.23C64.78,39.75,64.94,39.56,65.62,39Zm-3,.13c0-.23-1.2.44-1.2.44,0,.17.67-.86,1.52-.61C63,38.93,62.66,39.25,62.66,39.1Zm1.65-.65c0-.06-.39.33-.23-.12a11.41,11.41,0,0,0,2.37-.46A5.93,5.93,0,0,1,64.31,38.45Z"/><path class="cls-1" d="M74.3,38.16a2.21,2.21,0,0,1-1.38,0c-.1.81,4.48.55,4.13.4A7.89,7.89,0,0,0,74.3,38.16Z"/><path class="cls-1" d="M46.23,43.12c.07-.13.79.13,1.21-1.06.06-.4-.5-1.73-1.73-.46C45.76,41.81,45,42.89,46.23,43.12ZM47.34,42a1.22,1.22,0,0,1-.05.17S47,41.49,47.34,42Zm-.7-.72c0-.12,0,0,.47.17C47.14,41.68,47.09,41.7,46.64,41.32Zm-.81.49c0-.1.22-.26.22-.26s.14,0,.14,0-.14,0-.43.47A1.24,1.24,0,0,0,45.83,41.81Z"/><path class="cls-1" d="M49.08,43.07c.55,0,1.45-2-.21-1.84a1.07,1.07,0,0,0-.72,1.07C48.31,42.32,47.89,42.85,49.08,43.07Zm.49-1.23a.81.81,0,0,1,0,.32s0-.13-.16-.54A.57.57,0,0,1,49.57,41.84Zm-1,.15c.24.19.3.27,0,0C48.68,41.56,49.72,41.87,48.52,42Zm-.08.28c-.27.22,1.22.43.62.57C48.71,42.68,48.39,42.76,48.44,42.27Z"/><path class="cls-1" d="M73,49.89c-.26-.13-.48-.2-.48-.24l-.76-.33c-.05-.07-.52-.31-.57-.4-.82-1,2.43-2.71.39-4.58-.4.07-2.17-1.45-3.19.26a2.21,2.21,0,0,1-.27.53,10.67,10.67,0,0,1-.48,1.08,8.12,8.12,0,0,1-.79,1.25,4.44,4.44,0,0,1-2.35,1.32c-1-.22-2.27-.7.23-1.49.56-.51,1.75-3.46-.85-3.43a3.68,3.68,0,0,0-1.62.56c-.15.22-.69,0-1.43,1.34a7.52,7.52,0,0,0-.52,1.48c-.16.16-.15.16-.68.65A11.86,11.86,0,0,1,58,49c-.82.19-.63-.16,0-1.55-.1-.26.67-1,.25-2.32-1.09-2-4.31-1.41-5.71,1.55a1.46,1.46,0,0,0,0,.2,5.57,5.57,0,0,1-.61.64,2.71,2.71,0,0,1-1.87,1c-.84-.23.47-5.61-3.13-4.36a1.2,1.2,0,0,0-.41.27,1,1,0,0,0-.22.16,8.37,8.37,0,0,0-2.67,2.63,1.35,1.35,0,0,0-.17.17c-3.81,3.68-1.1-3.1.34-6.48-.19,0,.95-.86.17-1.12-2.94.53-1.5,4.27-4.71,6.74-2.06,1.62-3.73,0-1.56-3.85A2.86,2.86,0,0,0,37,39.83c-1.33-1.84-4.15,3.74-1.37.83.46.1.51-.42.72.44a2.2,2.2,0,0,1-.24,1.19L36,43a5.71,5.71,0,0,0-.5,1.2A8.07,8.07,0,0,0,35,46.44a1.54,1.54,0,0,0,.41,1.05,2.41,2.41,0,0,0,1.36.81c.1,0-.07,0,.46,0,.27,0,.73-.1.73-.1.24-.24.21,0,1.14-.65.11,0,.22-.29.61,0a1.92,1.92,0,0,1,0,.72,1.17,1.17,0,0,0-.08.33c-.05.48-9.11,9.32-3,9.4-.17.15,0-.74.34-.27a14.13,14.13,0,0,1,1.69-1.5c.07,0,.09-.07.14-.09a2.46,2.46,0,0,0,.9-1.68c.31-.49.17-1.47.75-2.75a.94.94,0,0,0,.1-.31,2.38,2.38,0,0,1,.17-.74l.22-.43c.06-.31.42-.39,1.26-1,0-.06.61-.48,1.17-1a.46.46,0,0,1,.07-.07c.08.48-.2,1,1.48,1.58.84.73,1.48-1.22,2.89-.74.59.36.87,1.41,3.35,0,.15-.12.53-.5.92-.89l.28-.3c0,.17,0,.53.74,1.31l.22.07c5.19-1-2,6.2-2.51,8.83-.87,2.66,1.31,4.55,3.85,1,1.17-2.72.13-5,2.11-7.75a.91.91,0,0,1,.24-.24c.35-.4.18-.22.78-.86a15.63,15.63,0,0,1,1.82-1.46,4.47,4.47,0,0,0,.56-.55,1.54,1.54,0,0,0,.36-.36l.13-.14c.23.31,0,.33.59,1.08a7.28,7.28,0,0,0,1.81.9l.36.06c.16.14.16,0,1,.06.25-.05.52-.23.84-.33l.62-.36a2.9,2.9,0,0,1,.4-.34c-.18-.09.52-.62.24-.18A5.14,5.14,0,0,0,68,47c.89-.2.67-3.06,2.32-1.43,0,.28-.33,1-.19,1.1.06.42-1.18,2.13.45,3.25l.11-.1c.12-.1.26-.2.64.43C71.28,50.41,74.88,50.67,73,49.89Zm-1.24-4.51c0-.08.15-.08,0-.54C71.72,44.76,72.28,45.38,71.79,45.38Zm-.25,1.46c-.07-.12.6-.51.27-1.27C72,45.2,72.11,46.43,71.54,46.84Zm-.05.44a3,3,0,0,0,.56-1.51C72.36,45.53,71,48.53,71.49,47.28Zm-13.6-2c.12,1,.07,2.92-.23-.17C57.66,45.11,57.89,45.16,57.89,45.28ZM35.37,40.23c-.18.32-.9.47.06-.19C35.47,40.14,35.45,40.14,35.37,40.23Zm.9-.19c-1.42.2.2-.8,1,.52C37.76,41.43,37,40.2,36.27,40Zm-1.08,6.28c-.12.2.5-1.38.28-.19C35.41,46.09,35.56,46.78,35.19,46.32ZM36.53,48c-.31-.25-.93,0-1.26-1.41C35.26,46.83,36.07,47.51,36.53,48ZM39,52c.38,5.17-6.93,7.65-.7-.36C38.74,51.47,39.46,50.21,39,52Zm4-10.4c.13,0,.12-.78.64-1.07C43.56,40.37,42.73,43.58,43,41.63Zm-.59,1.64c.1-.34.53-.45,0,.22h0s0,0,0,0S42.34,43.43,42.42,43.27Zm-2.63,9.35-.22,0C39.6,52.51,39.81,52.12,39.79,52.62Zm.47-1.48c.17-.5.08-.77,0,0S39.43,52.19,40.26,51.14Zm.86-2a.94.94,0,0,1-.95.51C40.3,49.83,40.62,48.37,41.12,49.16Zm0-1.72a8,8,0,0,1,1.25-3.59A36.59,36.59,0,0,0,41.12,47.44ZM47,44.66c.36-.23.44-.46.32-.35C48.22,44,48.06,44.61,47,44.66Zm-1.2,4.9c-.25.09-3-.76-1-.45-.08-.84-.63.14,1.23.31C46,49.42,45.9,49.59,45.75,49.56Zm.84-.52c0-.15-.23,0,0,0C46.66,49,45.84,49.69,46.59,49Zm1.58-2.82c.24.92-1.8,3.44-2.69,1C45.22,46.27,47.79,44,48.17,46.22Zm6.91,8c-.12.51-.18.78-.47,1.9L54.7,56c.63-3-.55,3.2,0,.13l-.13.08c-1.15,4.2,0,.08.6-2.81v.17S55.12,54.05,55.08,54.21Zm-.1-.46c-.1.61-.13.3-.43,1.81-.46.66-.52,4.2-2.79,4-.27-.4-.74-.89.12-2a12.64,12.64,0,0,1,1.95-4C54.22,53.43,55.65,51.17,55,53.75Zm.07-2.18c-.43.51-.49.43.34-.91C55.39,50.66,55.07,51.45,55.05,51.57Zm.45-1.19c-.23-.1.09-.09,0-1.31C55.88,48.88,55.68,49,55.5,50.38Zm1.2-3.92A3.25,3.25,0,0,1,56,48c-.25.05-.21.44-1,.1a.69.69,0,0,0-.25-.1c-.09,0-.17,0-.24-.1C53.1,47.28,55.61,42.56,56.7,46.46Zm0-2.07c.37.33.25.18,0,0S58.15,45.08,56.73,44.39Zm5,4.4c-.06,0,0,0,0-.2S62.25,48.76,61.74,48.79Zm.51.34c-.06-.2-.48-.39.34,0C62.44,49.17,62.31,49.24,62.25,49.13ZM62.12,47l-.5,0c-.29-.19,0-.28,0-.59l.39-.5c-.41,0,2.59-2.4,2.23-.23l-.39.52A2.51,2.51,0,0,1,62.12,47Zm.58.75c.06,0,.87-.24.28.33C62.87,48.07,63.09,47.89,62.7,47.73Zm.8,1c-.06-.07-.26.08-.72-.49,0-.06.21,0,.06-.26C62.62,48.26,63.85,48.77,63.5,48.73Zm5.85-3.84c-.06-.28-.67.88-.59.39C68.66,45.25,69.28,44.47,69.35,44.89Zm.39,0a.3.3,0,0,0-.14-.06l.05-.16S69.86,44.7,69.74,44.94Z"/></svg>